<?xml version="1.0" encoding="UTF-8"?>
<svg version="1.1" xmlns="http://www.w3.org/2000/svg" width="512" height="512">
<path d="M0 0 C0.78408078 -0.00538554 1.56816157 -0.01077108 2.37600237 -0.01631981 C4.99997909 -0.03061277 7.62345228 -0.02349247 10.24745178 -0.01637268 C12.13005987 -0.02207555 14.0126645 -0.02903949 15.89526367 -0.03717041 C21.00682747 -0.05512606 26.11821983 -0.0539289 31.22980571 -0.04822803 C35.49681225 -0.04513967 39.76378569 -0.05122469 44.03078753 -0.05726677 C54.096852 -0.07131829 64.16283162 -0.06974547 74.22889709 -0.05836487 C84.61440416 -0.04688259 94.99965302 -0.0609598 105.38512605 -0.08776134 C114.30161354 -0.10991059 123.21801994 -0.11655748 132.13453299 -0.11068493 C137.46004103 -0.10731235 142.78538354 -0.10975046 148.11086845 -0.12693596 C153.11863942 -0.14239061 158.12602758 -0.1384659 163.13378334 -0.11963081 C164.97119447 -0.11594085 166.80863387 -0.11906524 168.64601898 -0.1295166 C171.15548685 -0.1427006 173.66368255 -0.13120279 176.1730957 -0.11352539 C176.89927013 -0.1231304 177.62544455 -0.1327354 178.37362427 -0.14263147 C183.41401562 -0.069635 186.25981102 1.23635346 190.15003967 4.38768005 C193.54598762 8.84630252 193.86676796 12.57617333 193.71205139 18.0556488 C192.63723767 24.42795881 189.12483324 29.51312215 185.71253967 34.88768005 C184.93675271 36.15347776 184.16352583 37.42084765 183.39271545 38.68968201 C181.79525046 41.30983298 180.18337687 43.92016056 178.55775452 46.52293396 C176.26543766 50.19443368 174.00773462 53.88596203 171.76332092 57.5868988 C171.41143204 58.16710785 171.05954315 58.74731689 170.69699097 59.34510803 C169.99158764 60.50847311 169.28631047 61.67191469 168.5811615 62.83543396 C167.51982201 64.58377509 166.4546607 66.32973571 165.38856506 68.07518005 C160.04987683 76.82675388 154.9109569 85.68477753 149.82240295 94.58396912 C144.50557004 103.8493634 138.98812862 112.98272108 133.39808655 122.08494568 C127.47566885 131.7533655 121.80015288 141.55825277 116.15003967 151.38768005 C116.98862518 151.37879761 117.82721069 151.36991516 118.69120789 151.36076355 C126.60656766 151.28050794 134.52179014 151.21966004 142.43746376 151.18043137 C146.50670907 151.15958516 150.57561727 151.13132252 154.64466858 151.08592224 C158.57394586 151.04235746 162.50289954 151.01852063 166.43239975 151.00817108 C167.92909715 151.00079867 169.42577749 150.98640185 170.92233658 150.96475983 C173.02417569 150.93558248 175.12468973 150.93172973 177.22669983 150.93357849 C179.01873337 150.92025482 179.01873337 150.92025482 180.8469696 150.90666199 C185.79347725 151.62700987 188.97729538 153.84406791 191.97816467 157.79393005 C194.19519765 162.70096305 194.19020567 167.1432503 193.15003967 172.38768005 C191.06325489 176.45664887 188.41228345 179.95794478 185.5919342 183.53172302 C183.49347108 186.23279255 181.51683066 189.01679304 179.52796936 191.79905701 C177.87387636 194.11176082 176.20712571 196.41483316 174.53675842 198.71580505 C172.32551768 201.76395441 170.11943447 204.81568451 167.91957092 207.87205505 C162.31181024 215.66075387 156.6662425 223.41890584 150.96253967 231.13768005 C146.14717039 237.65490879 141.39139494 244.2088132 136.69691467 250.8134613 C132.11013755 257.26293516 127.45670615 263.66475398 122.81898499 270.07762146 C121.18485668 272.33948835 119.55366837 274.60344313 117.92347717 276.8681488 C111.7950677 285.37760064 105.6138447 293.8450769 99.38294983 302.2797699 C93.78571794 309.86436845 88.2659534 317.50356335 82.75892639 325.15379333 C80.05991839 328.90127789 77.35465083 332.64423851 74.65003967 336.38768005 C73.56667663 337.8876586 72.48334329 339.38765859 71.40003967 340.88768005 C69.23337301 343.88768005 67.06670634 346.88768005 64.90003967 349.88768005 C64.09578552 351.0013092 64.09578552 351.0013092 63.27528381 352.13743591 C62.19125551 353.63833555 61.10710825 355.13914928 60.02284241 356.63987732 C57.32416312 360.37541972 54.62752656 364.11240259 51.93519592 367.8525238 C46.32100789 375.64683852 40.67118584 383.41221606 34.96253967 391.13768005 C30.14717039 397.65490879 25.39139494 404.2088132 20.69691467 410.8134613 C16.11013755 417.26293516 11.45670615 423.66475398 6.81898499 430.07762146 C5.18485668 432.33948835 3.55366837 434.60344313 1.92347717 436.8681488 C-4.2049323 445.37760064 -10.3861553 453.8450769 -16.61705017 462.2797699 C-20.57897438 467.64842447 -24.508819 473.03901098 -28.41246033 478.45018005 C-28.93904236 479.1793866 -29.46562439 479.90859314 -30.00816345 480.65989685 C-32.81040911 484.5447114 -35.59987087 488.43821009 -38.37730408 492.34080505 C-38.9585907 493.15412292 -39.53987732 493.9674408 -40.13877869 494.80540466 C-41.24639353 496.35549655 -42.35032274 497.90823142 -43.44981384 499.46409607 C-47.05457071 504.49990737 -50.64037159 508.9146209 -55.84996033 512.38768005 C-61.40394255 513.07691883 -66.32106178 513.11189516 -71.41246033 510.70018005 C-74.60199376 507.67421244 -76.58965902 505.06902071 -77.27229309 500.65974426 C-77.25981504 493.20344043 -75.93165076 487.32096115 -73.17027283 480.42674255 C-72.77497375 479.39141388 -72.37967468 478.35608521 -71.97239685 477.28938293 C-70.65768285 473.85668378 -69.31600891 470.43516685 -67.97496033 467.01268005 C-67.03301512 464.56435619 -66.09345728 462.11511269 -65.15611267 459.6650238 C-63.65810245 455.74946816 -62.15902423 451.83436229 -60.65162659 447.92240906 C-55.0230936 433.30620643 -49.58934847 418.61857552 -44.15562439 403.92909241 C-41.65185371 397.16142291 -39.13972417 390.39685598 -36.62760925 383.63228035 C-35.82645326 381.4749364 -35.02546068 379.31753182 -34.22447205 377.16012573 C-21.23702727 342.18446089 -8.03330281 307.28984976 5.15003967 272.38768005 C3.79820084 272.38221161 3.79820084 272.38221161 2.41905212 272.37663269 C-6.08522991 272.33872425 -14.58912956 272.28183909 -23.09314156 272.20377731 C-27.46489562 272.1643128 -31.83644858 272.1321194 -36.20835876 272.11668396 C-40.42964242 272.10151044 -44.65037315 272.06705306 -48.87141037 272.01937103 C-50.47965049 272.00456431 -52.08796956 271.99663944 -53.69627762 271.9957962 C-55.9539927 271.99342252 -58.21018466 271.96631413 -60.46763611 271.93357849 C-62.39290634 271.92025482 -62.39290634 271.92025482 -64.35707092 271.90666199 C-69.5147185 271.14032627 -72.54325904 269.09067175 -75.70033264 264.97613525 C-79.68404116 256.00657828 -75.90773306 245.01929736 -73.54527283 236.0322113 C-73.19038851 234.63814962 -72.83685062 233.2437446 -72.48454285 231.84902954 C-71.72758665 228.86312041 -70.96204119 225.879604 -70.1894989 222.89768982 C-68.94529168 218.09401446 -67.72131027 213.28532392 -66.50083923 208.47557068 C-65.22294136 203.44207058 -63.94440706 198.40874692 -62.65974426 193.37696838 C-58.96858364 178.91344134 -55.38244257 164.42543849 -51.82907867 149.9275341 C-49.63930956 140.99366738 -47.4331474 132.06384923 -45.22824097 123.13370895 C-44.63396464 120.72668745 -44.03978079 118.31964315 -43.44566345 115.9125824 C-43.24173729 115.08638334 -43.03781113 114.26018429 -42.82770538 113.4089489 C-41.14297352 106.5807381 -39.46402157 99.75111287 -37.7855072 92.92137146 C-35.33822496 82.96497076 -32.88105607 73.01105307 -30.41470528 63.0593586 C-29.06328697 57.60510854 -27.71604617 52.14990432 -26.37895203 46.69212341 C-25.1203023 41.55505901 -23.85048938 36.42088202 -22.572258 31.28865623 C-22.10060693 29.38653617 -21.63302776 27.48340123 -21.16977692 25.57921791 C-20.53130226 22.95758574 -19.87824553 20.34000118 -19.22154236 17.72288513 C-18.94884049 16.58050133 -18.94884049 16.58050133 -18.6706295 15.41503906 C-17.26243762 9.90023535 -15.37618279 5.32233238 -10.70531559 1.7452507 C-7.09264555 0.02761687 -3.91632907 -0.03231349 0 0 Z " fill="#FFFFFF" transform="translate(197.84996032714844,-0.3876800537109375)"/>
</svg>
