<?xml version="1.0" encoding="UTF-8"?>
<svg version="1.1" xmlns="http://www.w3.org/2000/svg" width="512" height="512">
<path d="M0 0 C1.05489624 -0.00935994 1.05489624 -0.00935994 2.13110352 -0.01890898 C4.47576936 -0.03479977 6.81938988 -0.02225106 9.1640625 -0.00964355 C10.84977828 -0.01506645 12.53548932 -0.02219005 14.22119141 -0.03088379 C18.79145963 -0.04910026 23.36136618 -0.04205658 27.93164062 -0.02936745 C32.71745774 -0.01923109 37.50324416 -0.02863489 42.2890625 -0.03491211 C50.32557731 -0.04218666 58.36194503 -0.03260586 66.3984375 -0.0135498 C75.68597197 0.00821857 84.97315519 0.00116706 94.26068115 -0.02085543 C102.23877974 -0.0390149 110.21677267 -0.04156507 118.19488525 -0.03110075 C122.95810706 -0.02486883 127.72116384 -0.02402189 132.484375 -0.0372467 C136.96279317 -0.04881255 141.44075904 -0.04076615 145.91912842 -0.01766968 C147.56141408 -0.0123865 149.20373788 -0.01388971 150.8460083 -0.02272034 C153.09055875 -0.03367555 155.33366615 -0.01991476 157.578125 0 C158.83318848 0.0015081 160.08825195 0.0030162 161.38134766 0.00457001 C166.78782158 0.80317773 169.65647895 3.16971441 173.13399887 7.2786274 C175.06006902 11.03671382 175.33924464 14.05380913 175.27008057 18.17684937 C175.27349827 18.929266 175.27691597 19.68168263 175.28043723 20.45689976 C175.28700408 22.96763093 175.26506094 25.47728307 175.24316406 27.98791504 C175.24203532 29.79173253 175.24266997 31.59555186 175.24493408 33.39936829 C175.24608112 38.2895143 175.22257341 43.17926736 175.19463825 48.06932211 C175.16962292 53.18223163 175.16728249 58.29515029 175.16253662 63.40811157 C175.15010725 73.08718244 175.11728609 82.76607246 175.07713866 92.44506371 C175.03241982 103.46552386 175.01043361 114.48599268 174.99035692 125.50652099 C174.94855349 148.17375909 174.8782021 170.84083669 174.7890625 193.50793457 C172.32917805 192.53086694 169.88293433 191.54974303 167.46484375 190.47277832 C163.0241065 188.54234213 159.33773484 187.32883256 154.4765625 187.13293457 C150.09897986 186.84109573 150.09897986 186.84109573 147.2890625 183.82043457 C146.72638672 183.01412598 146.72638672 183.01412598 146.15234375 182.19152832 C140.79278044 175.57269798 132.31967457 173.5224417 124.32299805 172.06408691 C119.3824769 171.06401079 117.64884869 169.55468579 114.7890625 165.50793457 C112.55570656 163.8054753 112.55570656 163.8054753 110.1015625 162.44543457 C109.31394531 161.98008301 108.52632813 161.51473145 107.71484375 161.03527832 C103.82089484 159.00252261 99.81857324 157.25300697 95.7890625 155.50793457 C95.7797168 154.8385083 95.77037109 154.16908203 95.76074219 153.47937012 C95.70635858 150.38403658 95.62284997 147.29010645 95.5390625 144.19543457 C95.52488281 143.14291504 95.51070313 142.09039551 95.49609375 141.00598145 C95.1665586 130.29608904 92.48815499 120.30991026 84.7890625 112.50793457 C76.10084251 105.32055873 65.54675228 100.88616505 54.203125 101.69152832 C43.95089791 103.11626475 34.54511352 107.59072743 27.4765625 115.21887207 C22.43084521 122.06329413 19.72209534 129.75893252 19.49194336 138.18249512 C19.47229019 138.85592957 19.45263702 139.52936401 19.43238831 140.22320557 C19.36856829 142.44692348 19.31121118 144.67075877 19.25390625 146.89465332 C19.21089277 148.43737381 19.16747618 149.98008311 19.12367249 151.52278137 C19.00950885 155.58165363 18.90082555 159.6406549 18.79327393 163.69970703 C18.68254258 167.84225471 18.56664123 171.98465736 18.45117188 176.1270752 C18.22540191 184.25389514 18.00542003 192.38085862 17.7890625 200.50793457 C15.08509676 201.85991744 12.43923242 201.82226407 9.46459961 202.05334473 C1.20078565 202.71622173 -5.54874105 203.84016462 -13.05859375 207.48449707 C-15.2109375 208.50793457 -15.2109375 208.50793457 -17.2109375 208.50793457 C-17.30435067 182.79560134 -17.37490198 157.08329351 -17.41818619 131.37082481 C-17.43881737 119.43225815 -17.46694874 107.49379687 -17.51269531 95.55529785 C-17.55254588 85.15052808 -17.57836626 74.74583463 -17.58729148 64.34099066 C-17.59250921 58.83093356 -17.60478458 53.32109481 -17.63385773 47.81110764 C-17.66099855 42.62534587 -17.66938512 37.43989251 -17.66336823 32.25406647 C-17.66446905 30.35052693 -17.67243079 28.44697713 -17.6877594 26.54349899 C-17.70766653 23.9440562 -17.70287425 21.3457772 -17.69195557 18.74630737 C-17.70360693 17.99337666 -17.7152583 17.24044595 -17.72726274 16.46469915 C-17.66882241 11.31600979 -16.55301378 8.40608661 -13.2109375 4.50793457 C-8.78030529 0.7991373 -5.72526677 0.00687956 0 0 Z M56.7890625 35.50793457 C55.36864429 38.34877098 55.47453978 40.36270735 55.7890625 43.50793457 C58.02112681 46.35574076 59.33899249 47.35791123 62.7890625 48.50793457 C67.30944184 48.73677942 71.83222285 48.73624026 76.35766602 48.74816895 C78.58322812 48.75785478 80.80785842 48.78887989 83.03320312 48.82043457 C84.45832788 48.82696729 85.88345921 48.83221671 87.30859375 48.83605957 C89.24375854 48.85007812 89.24375854 48.85007812 91.21801758 48.86437988 C95.0844227 48.47845307 97.49937199 47.54197785 100.7890625 45.50793457 C102.20948071 42.66709816 102.10358522 40.65316179 101.7890625 37.50793457 C99.55699819 34.66012838 98.23913251 33.65795791 94.7890625 32.50793457 C90.26868316 32.27908972 85.74590215 32.27962888 81.22045898 32.2677002 C78.99489688 32.25801436 76.77026658 32.22698925 74.54492188 32.19543457 C73.11979712 32.18890185 71.69466579 32.18365243 70.26953125 32.17980957 C68.33436646 32.16579102 68.33436646 32.16579102 66.36010742 32.15148926 C62.4937023 32.53741607 60.07875301 33.47389129 56.7890625 35.50793457 Z " fill="#FFFFFF" transform="translate(177.2109375,123.4920654296875)"/>
<path d="M0 0 C5.14061654 3.40116406 8.98860613 8.15331839 10.9375 14 C11.09163876 16.87438548 11.19497285 19.72898986 11.25390625 22.60546875 C11.27468735 23.44467361 11.29546844 24.28387848 11.31687927 25.14851379 C11.38224018 27.82809294 11.44119714 30.50776969 11.5 33.1875 C11.54319802 35.00456737 11.58681273 36.82162488 11.63085938 38.63867188 C11.7379078 43.09234799 11.83921319 47.54612226 11.9375 52 C13.37512695 51.97280884 13.37512695 51.97280884 14.84179688 51.94506836 C16.10056641 51.93096924 17.35933594 51.91687012 18.65625 51.90234375 C19.90341797 51.88421631 21.15058594 51.86608887 22.43554688 51.84741211 C29.0327794 52.13486821 32.96955193 54.68998184 37.375 59.4375 C39.56883742 62.19614651 40.71923489 64.39862568 40.9375 68 C41.51242187 67.84144531 42.08734375 67.68289063 42.6796875 67.51953125 C50.25830207 65.77566319 57.25743443 67.04918692 63.9375 71 C68.35024722 74.83612689 71.10935584 78.12119888 71.9375 84 C72.9275 83.67 73.9175 83.34 74.9375 83 C83.50372248 82.15899639 90.98260643 82.52647365 97.9375 88 C102.66444064 93.59515423 105.05441291 98.1207745 105.11450195 105.42041016 C105.12107315 106.08131149 105.12764435 106.74221283 105.13441467 107.42314148 C105.15422908 109.62844988 105.16585572 111.83368837 105.17578125 114.0390625 C105.17985678 114.8026646 105.1839323 115.56626671 105.18813133 116.35300827 C105.20906995 120.42934651 105.22331293 124.50565077 105.23266602 128.58203125 C105.24136557 131.89049634 105.26183245 135.19851906 105.29418945 138.50683594 C105.55271742 165.53872823 104.56878089 192.38036609 97.7183075 218.7116394 C97.06061755 221.28914929 97.06061755 221.28914929 96.9375 225 C99.10122517 227.7680145 99.10122517 227.7680145 101.9375 230 C105.72572488 236.22888875 105.42832439 241.94134064 105.38354492 249.05029297 C105.37499188 251.12697153 105.40390774 253.20093331 105.43554688 255.27734375 C105.43458008 257.24767578 105.43458008 257.24767578 105.43359375 259.2578125 C105.43544678 260.4555127 105.4372998 261.65321289 105.43920898 262.88720703 C104.82493191 266.69841518 103.93920498 267.64197076 100.9375 270 C98.20758057 270.50336456 98.20758057 270.50336456 95.01660156 270.50793457 C93.19956726 270.52485352 93.19956726 270.52485352 91.3458252 270.54211426 C90.0065894 270.53433734 88.66735597 270.52614468 87.328125 270.51757812 C85.91531655 270.52299928 84.50251376 270.53012191 83.08972168 270.53881836 C79.25496057 270.55705583 75.42062985 270.54998271 71.58586121 270.53730202 C67.57317951 270.52717643 63.56053471 270.53656646 59.54785156 270.54284668 C52.80917747 270.55012439 46.07067872 270.54053222 39.33203125 270.52148438 C31.54068576 270.49971527 23.74975895 270.50676657 15.95842361 270.52879 C9.26955201 270.54694055 2.58080646 270.54950405 -4.10808182 270.53903532 C-8.10333367 270.53279845 -12.09838871 270.53196994 -16.09362793 270.54518127 C-19.84976301 270.55673429 -23.6053582 270.54872481 -27.36143494 270.52560425 C-28.7400981 270.52031411 -30.11880668 270.52183624 -31.49745178 270.53065491 C-33.37881856 270.54157998 -35.26028461 270.52545207 -37.14160156 270.50793457 C-38.72113617 270.50567242 -38.72113617 270.50567242 -40.33258057 270.50336456 C-43.77157137 269.8692557 -44.95404289 268.7435363 -47.0625 266 C-47.81519771 261.67416263 -47.72109495 257.33027167 -47.69384766 252.94799805 C-47.68756669 250.83493536 -47.73429167 248.72759581 -47.78515625 246.61523438 C-47.85555872 239.2453162 -47.29965341 233.65918126 -42.84130859 227.6081543 C-40.7368011 225.70554781 -38.73456478 224.89949852 -36.0625 224 C-43.65609765 209.84241373 -51.37448113 195.77345117 -59.41015625 181.86181641 C-61.25649174 178.66401135 -63.09711772 175.46295344 -64.9375 172.26171875 C-66.27043489 169.94508284 -67.60394448 167.62877882 -68.9375 165.3125 C-69.55608887 164.23758301 -70.17467773 163.16266602 -70.81201172 162.05517578 C-73.59836119 157.22485018 -76.41090108 152.42201928 -79.33203125 147.671875 C-85.14962178 138.00913599 -89.44904013 126.66315599 -87.375 115.3125 C-85.50966175 108.30224188 -82.07876112 104.60657329 -75.96484375 100.98046875 C-70.05865102 97.93641459 -63.51989316 98.29988264 -57.0625 99 C-50.84587016 101.13254011 -46.47254611 104.50742891 -41.89404297 109.13085938 C-41.17586395 109.85446655 -40.45768494 110.57807373 -39.71774292 111.3236084 C-39.17151276 111.87681763 -38.62528259 112.43002686 -38.0625 113 C-38.05076752 111.78192657 -38.03903503 110.56385315 -38.02694702 109.30886841 C-37.9122885 97.8034515 -37.76666137 86.29878326 -37.59107018 74.79413033 C-37.50179172 68.88006211 -37.42325296 62.9662653 -37.36962891 57.05175781 C-37.31743142 51.33886916 -37.2365387 45.62702857 -37.13612747 39.91479111 C-37.10287783 37.74055947 -37.07979466 35.56614673 -37.06727219 33.39169693 C-36.92536957 11.00716022 -36.92536957 11.00716022 -30.0625 4 C-21.71024902 -3.2687804 -10.14142785 -5.01932155 0 0 Z M-17.75036621 16.13647461 C-19.64590914 18.82857232 -19.49006768 20.91405879 -19.55664062 24.19140625 C-19.589552 25.50214111 -19.62246338 26.81287598 -19.65637207 28.16333008 C-19.67762566 29.62971344 -19.69840085 31.0961038 -19.71875 32.5625 C-19.75063203 34.11289428 -19.78349725 35.6632686 -19.81726074 37.21362305 C-19.92451104 42.47545191 -19.99597024 47.737519 -20.0625 53 C-20.07486694 53.94915283 -20.08723389 54.89830566 -20.09997559 55.8762207 C-20.33051423 73.81048548 -20.47449999 91.74550876 -20.61474609 109.68066406 C-20.65726211 115.07673076 -20.70443239 120.47274114 -20.75437927 125.8687439 C-20.78080075 128.88619349 -20.80165745 131.90364936 -20.8223877 134.92114258 C-20.83896931 136.74821243 -20.8558392 138.57527969 -20.87304688 140.40234375 C-20.87723129 141.23424225 -20.88141571 142.06614075 -20.88572693 142.92324829 C-20.92162778 146.19895692 -21.01946027 148.8708808 -22.0625 152 C-23.45114434 152.30556226 -24.84931264 152.56800808 -26.25 152.8125 C-27.02730469 152.96332031 -27.80460937 153.11414063 -28.60546875 153.26953125 C-32.43125952 152.84984991 -33.65581433 150.91696396 -36.0625 148 C-37.63985156 145.5070134 -39.00901046 142.92588537 -40.375 140.3125 C-45.43379725 131.02411249 -51.28142805 120.95886682 -61.0625 116 C-64.81761206 115.32961907 -64.81761206 115.32961907 -68.0625 116 C-70.40297454 117.93358244 -70.40297454 117.93358244 -70.5 121.375 C-70.20050688 130.64264816 -64.71767271 138.86515744 -59.98339844 146.53759766 C-56.26767618 152.57303906 -52.81530821 158.74171577 -49.375 164.9375 C-44.13570954 174.35713589 -38.78899734 183.70403596 -33.29614258 192.97827148 C-27.66109989 202.54373264 -22.42321359 212.25324802 -17.0625 222 C14.6175 222 46.2975 222 78.9375 222 C81.01142394 215.77822818 82.24993559 209.74334119 83.4375 203.3125 C83.65019531 202.21099609 83.86289062 201.10949219 84.08203125 199.97460938 C87.79543093 180.00654298 88.28638207 160.34176749 88.25317383 140.10595703 C88.24729182 136.22682718 88.26457109 132.3481614 88.2875185 128.46910858 C88.30220932 125.45970882 88.30313569 122.45042352 88.30000877 119.44099426 C88.30052101 118.00884558 88.30574045 116.57669033 88.31582069 115.14457703 C88.3281206 113.15957282 88.31947526 111.17447193 88.30981445 109.18945312 C88.31044388 108.06317505 88.3110733 106.93689697 88.3117218 105.77648926 C88.15464785 103.00680132 88.15464785 103.00680132 86.63298035 101.13659668 C83.77769505 99.22250325 81.25354963 99.64470897 77.9375 100 C75.77957749 101.57851501 75.03861441 102.48414462 74.52099609 105.12487793 C74.50117676 105.94411743 74.48135742 106.76335693 74.4609375 107.60742188 C74.43080566 108.53848755 74.40067383 109.46955322 74.36962891 110.42883301 C74.35077637 111.43200562 74.33192383 112.43517822 74.3125 113.46875 C74.27946777 114.50060425 74.24643555 115.5324585 74.21240234 116.59558105 C74.10705835 119.89681703 74.02008299 123.19812081 73.9375 126.5 C73.82884197 130.84442614 73.70154779 135.18770225 73.5625 139.53125 C73.54364746 140.53442261 73.52479492 141.53759521 73.50537109 142.57116699 C73.47523926 143.50223267 73.44510742 144.43329834 73.4140625 145.39257812 C73.39424316 146.21181763 73.37442383 147.03105713 73.35400391 147.87512207 C72.83410787 150.52747562 72.11964998 151.42919346 69.9375 153 C63.13981214 153.64739884 63.13981214 153.64739884 59.5 151.6875 C56.59667871 148.55191301 56.80537125 145.35765675 56.77978516 141.29101562 C56.76952301 140.11970093 56.75926086 138.94838623 56.74868774 137.74157715 C56.74138641 136.47591919 56.73408508 135.21026123 56.7265625 133.90625 C56.70568519 131.92301309 56.68479065 129.93977617 56.66286278 127.9565506 C56.60966141 123.06078344 56.5654178 118.16501264 56.53613281 113.26904297 C56.51925881 110.5217874 56.49459474 107.7748152 56.46127319 105.02770996 C56.43019535 102.4380642 56.41086143 99.84824653 56.40420532 97.25842285 C56.38763885 96.08710815 56.37107239 94.91579346 56.35400391 93.70898438 C56.34591705 92.67656616 56.3378302 91.64414795 56.32949829 90.58044434 C55.88070313 87.62611789 55.30643246 86.75476479 52.9375 85 C50.5808774 83.91194854 50.5808774 83.91194854 47.9375 84 C45.20171012 85.54651576 45.20171012 85.54651576 42.9375 88 C42.16291718 90.86587536 42.16291718 90.86587536 42.23388672 94.09790039 C42.20390594 95.32920181 42.17392517 96.56050323 42.14303589 97.82911682 C42.13433947 99.16862945 42.12572531 100.50814261 42.1171875 101.84765625 C42.0892298 103.22486186 42.05868434 104.60201716 42.02566528 105.97911072 C41.94388228 109.59946914 41.88882646 113.21967629 41.84191895 116.84063721 C41.76513664 122.63961321 41.66037807 128.43779127 41.53180313 134.23583794 C41.49266319 136.26054882 41.47260426 138.28483928 41.45407104 140.30982971 C41.41855637 142.1520536 41.41855637 142.1520536 41.38232422 144.03149414 C41.36164383 145.65553917 41.36164383 145.65553917 41.34054565 147.31239319 C40.9375 150 40.9375 150 39.53079224 151.84812927 C36.62145435 153.95143529 33.36460177 153.54375727 29.9375 153 C27.76273599 151.45661909 27.11917363 150.36334727 25.9375 148 C25.86593779 145.68748891 25.86193227 143.37280352 25.88745117 141.05932617 C25.89373032 140.34530136 25.90000946 139.63127655 25.90647888 138.89561462 C25.920344 137.34268005 25.93628303 135.78976295 25.95403099 134.2368679 C25.98063094 131.77797559 25.99852485 129.31917276 26.01350403 126.86018372 C26.05629156 119.8678055 26.10386871 112.87560431 26.18432617 105.88354492 C26.23288514 101.60835267 26.26185581 97.33340983 26.27807045 93.05797768 C26.28796443 91.42926305 26.30516931 89.80057565 26.32985497 88.17201805 C26.36365797 85.89065683 26.37249002 83.61043834 26.37573242 81.32885742 C26.38763107 80.03139084 26.39952972 78.73392426 26.41178894 77.3971405 C25.85606199 73.41669233 24.81216018 71.76419396 21.9375 69 C18.9375 68.25 18.9375 68.25 15.9375 69 C12.89315194 71.24990887 12.02576821 72.43798489 11.43197632 76.21873474 C11.42912628 77.49160843 11.42627625 78.76448212 11.42333984 80.07592773 C11.41265221 81.13277267 11.41265221 81.13277267 11.40174866 82.21096802 C11.38248074 84.53546259 11.39074487 86.8590459 11.3984375 89.18359375 C11.38852983 90.80259021 11.37658831 92.42157539 11.36270142 94.0405426 C11.33032871 98.30149118 11.31994682 102.56218274 11.31585693 106.82324219 C11.30710407 113.63965044 11.27154775 120.45584733 11.2236824 127.27208138 C11.21111413 129.65017224 11.211854 132.02799537 11.21395874 134.40611267 C11.20737614 135.86896977 11.20036943 137.33182504 11.19287109 138.79467773 C11.19161224 140.06834702 11.19035339 141.3420163 11.1890564 142.65428162 C10.94405652 145.91279783 10.4536662 148.12097924 8.9375 151 C6.01081445 152.78853006 4.24265793 153.01220632 0.8125 152.875 C-2.61407655 151.83212888 -3.27427543 151.03708078 -5.0625 148 C-5.43888092 145.48593044 -5.43888092 145.48593044 -5.44104004 142.60386658 C-5.44924271 141.50886337 -5.45744537 140.41386017 -5.46589661 139.28567505 C-5.45974838 138.08917328 -5.45360016 136.89267151 -5.44726562 135.65991211 C-5.45551261 133.7201395 -5.46376039 131.78036689 -5.47203827 129.84059441 C-5.47803509 127.75812644 -5.47665529 125.67577823 -5.47319031 123.59330559 C-5.46638132 119.25281893 -5.48224635 114.91259688 -5.50158691 110.57215881 C-5.54266096 100.5767701 -5.5539937 90.5813887 -5.56511688 80.58592987 C-5.5756191 71.42184084 -5.59236094 62.25787884 -5.63321257 53.09386832 C-5.65159317 48.7776859 -5.65545282 44.4618058 -5.64827728 40.14559352 C-5.64712349 38.10862585 -5.65274922 36.07181393 -5.66145325 34.03486633 C-5.67203437 31.54953208 -5.67185266 29.06412046 -5.65910339 26.57879639 C-5.66730606 25.48661301 -5.67550873 24.39442963 -5.68395996 23.26914978 C-5.68467247 22.31844573 -5.68538498 21.36774168 -5.68611908 20.38822842 C-5.88430594 17.95980047 -5.88430594 17.95980047 -7.36740875 16.19411564 C-10.48903121 13.99507285 -14.58649581 14.00617639 -17.75036621 16.13647461 Z " fill="#FFFFFF" transform="translate(247.0625,242)"/>
<path d="M0 0 C0.79019531 -0.04253906 1.58039063 -0.08507812 2.39453125 -0.12890625 C10.90701672 1.97838036 17.56617578 10.63862531 23.5 16.625 C24.39267578 17.50994141 25.28535156 18.39488281 26.20507812 19.30664062 C27.06166016 20.16580078 27.91824219 21.02496094 28.80078125 21.91015625 C29.57204346 22.68367432 30.34330566 23.45719238 31.13793945 24.25415039 C34.48815735 28.02738568 36.62619821 31.266113 36.75 36.375 C36.81380859 37.56029297 36.81380859 37.56029297 36.87890625 38.76953125 C34.77161964 47.28201672 26.11137469 53.94117578 20.125 59.875 C19.24005859 60.76767578 18.35511719 61.66035156 17.44335938 62.58007812 C16.58419922 63.43666016 15.72503906 64.29324219 14.83984375 65.17578125 C14.06632568 65.94704346 13.29280762 66.71830566 12.49584961 67.51293945 C8.72261432 70.86315735 5.483887 73.00119821 0.375 73.125 C-0.81029297 73.18880859 -0.81029297 73.18880859 -2.01953125 73.25390625 C-10.60836741 71.12771884 -17.32850525 62.34868075 -23.3125 56.3125 C-24.68921875 54.94738281 -24.68921875 54.94738281 -26.09375 53.5546875 C-26.96 52.68585938 -27.82625 51.81703125 -28.71875 50.921875 C-29.50572266 50.13264648 -30.29269531 49.34341797 -31.10351562 48.53027344 C-32.8125 46.5625 -32.8125 46.5625 -32.8125 44.5625 C-57.5625 44.5625 -82.3125 44.5625 -107.8125 44.5625 C-107.8125 39.2825 -107.8125 34.0025 -107.8125 28.5625 C-83.0625 28.5625 -58.3125 28.5625 -32.8125 28.5625 C-32.1525 27.2425 -31.4925 25.9225 -30.8125 24.5625 C-29.32528893 22.88984678 -27.77973923 21.26837152 -26.19921875 19.68359375 C-25.28076172 18.76255859 -24.36230469 17.84152344 -23.41601562 16.89257812 C-22.697323 16.18016968 -22.697323 16.18016968 -21.96411133 15.45336914 C-20.50822393 14.00816359 -19.06327977 12.5526375 -17.61914062 11.09570312 C-16.69681641 10.17595703 -15.77449219 9.25621094 -14.82421875 8.30859375 C-13.98334717 7.46997803 -13.14247559 6.6313623 -12.27612305 5.76733398 C-8.44749478 2.34088052 -5.20767951 0.12619579 0 0 Z M-2.50830078 21.03125 C-3.16813965 21.7015625 -3.82797852 22.371875 -4.5078125 23.0625 C-5.58095703 24.1453125 -5.58095703 24.1453125 -6.67578125 25.25 C-7.79533203 26.3946875 -7.79533203 26.3946875 -8.9375 27.5625 C-9.69160156 28.325625 -10.44570313 29.08875 -11.22265625 29.875 C-13.09046966 31.76645662 -14.95347267 33.66241362 -16.8125 35.5625 C-15.4540798 38.60582765 -13.92786976 40.68559151 -11.5546875 43.015625 C-10.92949219 43.634375 -10.30429687 44.253125 -9.66015625 44.890625 C-9.00917969 45.52484375 -8.35820312 46.1590625 -7.6875 46.8125 C-7.02878906 47.4621875 -6.37007812 48.111875 -5.69140625 48.78125 C-4.06953357 50.37961727 -2.4431719 51.97311897 -0.8125 53.5625 C2.23082765 52.2040798 4.31059151 50.67786976 6.640625 48.3046875 C7.259375 47.67949219 7.878125 47.05429687 8.515625 46.41015625 C9.14984375 45.75917969 9.7840625 45.10820312 10.4375 44.4375 C11.0871875 43.77878906 11.736875 43.12007813 12.40625 42.44140625 C14.00461727 40.81953357 15.59811897 39.1931719 17.1875 37.5625 C15.8364735 34.55234706 14.32414313 32.44282534 12 30.109375 C11.07574219 29.18125 11.07574219 29.18125 10.1328125 28.234375 C9.16988281 27.28304687 9.16988281 27.28304687 8.1875 26.3125 C7.54554688 25.6628125 6.90359375 25.013125 6.2421875 24.34375 C5.31792969 23.42335937 5.31792969 23.42335937 4.375 22.484375 C3.81167969 21.92331055 3.24835938 21.36224609 2.66796875 20.78417969 C0.44137044 18.94679546 -0.35669894 19.16772615 -2.50830078 21.03125 Z " fill="#FFFFFF" transform="translate(475.8125,219.4375)"/>
<path d="M0 0 C0.79019531 -0.04253906 1.58039062 -0.08507812 2.39453125 -0.12890625 C10.98336741 1.99728116 17.70350525 10.77631925 23.6875 16.8125 C24.6053125 17.72257812 25.523125 18.63265625 26.46875 19.5703125 C27.335 20.43914062 28.20125 21.30796875 29.09375 22.203125 C29.88072266 22.99235352 30.66769531 23.78158203 31.47851562 24.59472656 C33.1875 26.5625 33.1875 26.5625 33.1875 28.5625 C57.9375 28.5625 82.6875 28.5625 108.1875 28.5625 C108.1875 33.8425 108.1875 39.1225 108.1875 44.5625 C83.4375 44.5625 58.6875 44.5625 33.1875 44.5625 C32.5275 45.8825 31.8675 47.2025 31.1875 48.5625 C29.70028893 50.23515322 28.15473923 51.85662848 26.57421875 53.44140625 C25.1965332 54.82295898 25.1965332 54.82295898 23.79101562 56.23242188 C23.31188721 56.70736084 22.83275879 57.1822998 22.33911133 57.67163086 C20.88322393 59.11683641 19.43827977 60.5723625 17.99414062 62.02929688 C17.07181641 62.94904297 16.14949219 63.86878906 15.19921875 64.81640625 C14.35834717 65.65502197 13.51747559 66.4936377 12.65112305 67.35766602 C8.82249478 70.78411948 5.58267951 72.99880421 0.375 73.125 C-0.41519531 73.16753906 -1.20539062 73.21007812 -2.01953125 73.25390625 C-10.53201672 71.14661964 -17.19117578 62.48637469 -23.125 56.5 C-24.01767578 55.61505859 -24.91035156 54.73011719 -25.83007812 53.81835938 C-27.11495117 52.52961914 -27.11495117 52.52961914 -28.42578125 51.21484375 C-29.19704346 50.44132568 -29.96830566 49.66780762 -30.76293945 48.87084961 C-34.11315735 45.09761432 -36.25119821 41.858887 -36.375 36.75 C-36.41753906 35.95980469 -36.46007813 35.16960937 -36.50390625 34.35546875 C-34.39661964 25.84298328 -25.73637469 19.18382422 -19.75 13.25 C-18.42258789 11.91098633 -18.42258789 11.91098633 -17.06835938 10.54492188 C-16.20919922 9.68833984 -15.35003906 8.83175781 -14.46484375 7.94921875 C-13.30456665 6.79232544 -13.30456665 6.79232544 -12.12084961 5.61206055 C-8.34761432 2.26184265 -5.108887 0.12380179 0 0 Z M-2.50830078 21.03125 C-3.16813965 21.7015625 -3.82797852 22.371875 -4.5078125 23.0625 C-5.58095703 24.1453125 -5.58095703 24.1453125 -6.67578125 25.25 C-7.79533203 26.3946875 -7.79533203 26.3946875 -8.9375 27.5625 C-9.69160156 28.325625 -10.44570313 29.08875 -11.22265625 29.875 C-13.09046966 31.76645662 -14.95347267 33.66241362 -16.8125 35.5625 C-15.4540798 38.60582765 -13.92786976 40.68559151 -11.5546875 43.015625 C-10.92949219 43.634375 -10.30429687 44.253125 -9.66015625 44.890625 C-9.00917969 45.52484375 -8.35820312 46.1590625 -7.6875 46.8125 C-7.02878906 47.4621875 -6.37007812 48.111875 -5.69140625 48.78125 C-4.06953357 50.37961727 -2.4431719 51.97311897 -0.8125 53.5625 C2.23082765 52.2040798 4.31059151 50.67786976 6.640625 48.3046875 C7.259375 47.67949219 7.878125 47.05429687 8.515625 46.41015625 C9.14984375 45.75917969 9.7840625 45.10820312 10.4375 44.4375 C11.0871875 43.77878906 11.736875 43.12007813 12.40625 42.44140625 C14.00461727 40.81953357 15.59811897 39.1931719 17.1875 37.5625 C15.8364735 34.55234706 14.32414313 32.44282534 12 30.109375 C11.07574219 29.18125 11.07574219 29.18125 10.1328125 28.234375 C9.16988281 27.28304687 9.16988281 27.28304687 8.1875 26.3125 C7.54554687 25.6628125 6.90359375 25.013125 6.2421875 24.34375 C5.31792969 23.42335937 5.31792969 23.42335937 4.375 22.484375 C3.81167969 21.92331055 3.24835937 21.36224609 2.66796875 20.78417969 C0.44137044 18.94679546 -0.35669894 19.16772615 -2.50830078 21.03125 Z " fill="#FFFFFF" transform="translate(35.8125,219.4375)"/>
<path d="M0 0 C1.98254143 -0.0165428 3.96502362 -0.0438107 5.94726562 -0.08203125 C8.80890781 -0.13691598 11.6691517 -0.15869282 14.53125 -0.17333984 C15.41270691 -0.19600922 16.29416382 -0.21867859 17.20233154 -0.24203491 C21.51888011 -0.22728327 24.3519857 -0.01299741 27.77832031 2.7578125 C33.28524589 8.5701918 31.53786711 17.49760594 31.58447266 25.11572266 C31.60101546 27.09826408 31.62828335 29.08074628 31.66650391 31.06298828 C31.72138864 33.92463046 31.74316547 36.78487436 31.7578125 39.64697266 C31.78048187 40.52842957 31.80315125 41.40988647 31.82650757 42.3180542 C31.81175593 46.63460276 31.59747007 49.46770836 28.82666016 52.89404297 C26.234375 55.35009766 26.234375 55.35009766 24.234375 56.35009766 C22.47318517 56.26379975 20.71192608 56.16931729 18.95423889 56.02870178 C-0.78147814 54.12354858 -0.78147814 54.12354858 -18.57221985 61.04138184 C-24.45857467 66.12321673 -29.45129115 72.06168923 -34.12792969 78.25463867 C-34.66836914 78.94614014 -35.20880859 79.6376416 -35.765625 80.35009766 C-36.095625 80.35009766 -36.425625 80.35009766 -36.765625 80.35009766 C-37.29045482 76.60728017 -37.66425747 72.86284357 -38.015625 69.10009766 C-38.16386719 68.05595703 -38.31210937 67.01181641 -38.46484375 65.93603516 C-38.7496279 62.38718647 -38.7356313 59.79034422 -37.765625 56.35009766 C-35.81698686 54.2911255 -33.9644628 52.53659117 -31.80859375 50.73291016 C-28.06871409 47.5312437 -25.53142739 45.03697241 -24.76318359 40.03759766 C-24.40560644 35.17663042 -24.59318805 30.3377684 -24.828125 25.47509766 C-24.91002493 22.97799541 -24.97404345 20.48277625 -25.01036072 17.98458862 C-25.03657216 16.44338745 -25.09038719 14.90231325 -25.17677307 13.36331177 C-25.28481829 9.39234366 -24.83940413 6.94347256 -22.37280273 3.89648438 C-16.6090155 -1.73290984 -7.64935623 0.04679666 0 0 Z " fill="#FFFFFF" transform="translate(404.765625,75.64990234375)"/>
<path d="M0 0 C1.98254143 -0.0165428 3.96502362 -0.0438107 5.94726562 -0.08203125 C8.80890781 -0.13691598 11.6691517 -0.15869282 14.53125 -0.17333984 C15.41270691 -0.19600922 16.29416382 -0.21867859 17.20233154 -0.24203491 C21.51888011 -0.22728327 24.3519857 -0.01299741 27.77832031 2.7578125 C31.21460909 6.38470258 31.32412892 7.98638656 31.19233704 12.91012573 C31.1609388 14.05216965 31.1609388 14.05216965 31.12890625 15.21728516 C31.10482294 17.69481844 31.09136156 20.17229057 31.07788086 22.64990234 C31.05742156 24.34915186 31.01746378 26.04829294 30.95678711 27.74658203 C30.30124602 38.54274299 30.30124602 38.54274299 34.97705078 47.77392578 C36.59888599 49.29844936 38.27219845 50.73116396 39.97938538 52.15896606 C42.70511722 54.52006166 44.13616796 56.00152045 45.1262207 59.515625 C45.18811271 62.80453173 44.94654769 65.84479435 44.484375 69.10009766 C44.38253906 70.19064453 44.28070313 71.28119141 44.17578125 72.40478516 C43.91909765 75.06496062 43.60543577 77.70388229 43.234375 80.35009766 C39.2451942 77.184001 36.04237645 74.26806744 33.1328125 70.08056641 C28.90529225 64.41275341 24.40727249 58.54573104 17.17596436 56.87432861 C9.84379214 55.82982961 2.43957997 55.9865151 -4.94189453 56.28051758 C-6.13757301 56.32171974 -6.13757301 56.32171974 -7.35740662 56.36375427 C-8.86605471 56.42583241 -10.37392961 56.51471162 -11.87904358 56.63514709 C-15.82642849 56.83377533 -18.18150761 56.41852883 -21.20825195 53.96826172 C-26.84712153 48.19535124 -25.06884889 39.24643267 -25.11572266 31.58447266 C-25.13226546 29.60193123 -25.15953335 27.61944903 -25.19775391 25.63720703 C-25.25263864 22.77556485 -25.27441547 19.91532095 -25.2890625 17.05322266 C-25.31173187 16.17176575 -25.33440125 15.29030884 -25.35775757 14.38214111 C-25.34300593 10.06559255 -25.12872007 7.23248695 -22.35791016 3.80615234 C-16.54553086 -1.70077323 -7.61811671 0.04660554 0 0 Z " fill="#FFFFFF" transform="translate(100.765625,75.64990234375)"/>
<path d="M0 0 C3.9891808 3.16609666 7.19199855 6.08203022 10.1015625 10.26953125 C14.32908275 15.93734424 18.82710251 21.80436661 26.05841064 23.47576904 C33.39058286 24.52026804 40.79479503 24.36358256 48.17626953 24.06958008 C48.97338852 24.04211197 49.77050751 24.01464386 50.59178162 23.98634338 C52.10042971 23.92426525 53.60830461 23.83538604 55.11341858 23.71495056 C59.06080349 23.51632232 61.41588261 23.93156882 64.44262695 26.38183594 C70.08149653 32.15474642 68.30322389 41.10366499 68.35009766 48.765625 C68.36664046 50.74816643 68.39390835 52.73064862 68.43212891 54.71289062 C68.48701364 57.57453281 68.50879047 60.4347767 68.5234375 63.296875 C68.54610687 64.17833191 68.56877625 65.05978882 68.59213257 65.96795654 C68.57738093 70.28450511 68.36309507 73.1176107 65.59228516 76.54394531 C59.77990586 82.05087089 50.85249171 80.30349211 43.234375 80.35009766 C41.25183357 80.36664046 39.26935138 80.39390835 37.28710938 80.43212891 C34.42546719 80.48701364 31.5652233 80.50879047 28.703125 80.5234375 C27.82166809 80.54610687 26.94021118 80.56877625 26.03204346 80.59213257 C21.71549489 80.57738093 18.8823893 80.36309507 15.45605469 77.59228516 C11.52943328 73.44786507 11.94359428 70.54162712 12.0703125 65.09765625 C12.08122767 63.46811679 12.08893219 61.83855327 12.09375 60.20898438 C12.10155906 57.6463924 12.1241763 55.08955973 12.20214844 52.52807617 C12.88052304 41.9424288 12.88052304 41.9424288 8.49975586 32.81860352 C6.55031799 30.99737454 4.50536704 29.32289971 2.45800781 27.60864258 C-0.52783224 24.43982048 -0.85589318 22.7571092 -1.07421875 18.45703125 C-1.00226691 16.23960648 -0.87270868 14.02334767 -0.6875 11.8125 C-0.63787109 10.66974609 -0.58824219 9.52699219 -0.53710938 8.34960938 C-0.40869519 5.55951933 -0.22913884 2.78331582 0 0 Z " fill="#FFFFFF" transform="translate(368,356)"/>
<path d="M0 0 C0.33 0 0.66 0 1 0 C1.32399612 3.93553334 1.51617631 7.86760518 1.6875 11.8125 C1.77966797 12.91271484 1.87183594 14.01292969 1.96679688 15.14648438 C2.08302702 18.72848598 1.98355114 21.54349752 1 25 C-1.46679688 27.61743164 -1.46679688 27.61743164 -4.48828125 30.1484375 C-8.06717102 33.16356121 -10.23924589 35.48126588 -10.91821289 40.22827148 C-11.25176251 45.09453071 -11.08384101 49.94413133 -10.875 54.8125 C-10.80061097 57.31636719 -10.74265111 59.81836161 -10.71292114 62.32316589 C-10.69135925 63.8698109 -10.64302928 65.41640181 -10.5632019 66.96113586 C-10.47373155 70.93677244 -10.92495773 73.4045344 -13.39501953 76.45581055 C-19.15698166 82.0833089 -28.11879016 80.30331642 -35.765625 80.35009766 C-37.74816643 80.36664046 -39.73064862 80.39390835 -41.71289062 80.43212891 C-44.57453281 80.48701364 -47.4347767 80.50879047 -50.296875 80.5234375 C-51.17833191 80.54610687 -52.05978882 80.56877625 -52.96795654 80.59213257 C-57.28450511 80.57738093 -60.1176107 80.36309507 -63.54394531 77.59228516 C-69.05087089 71.77990586 -67.30349211 62.85249171 -67.35009766 55.234375 C-67.36664046 53.25183357 -67.39390835 51.26935138 -67.43212891 49.28710938 C-67.48701364 46.42546719 -67.50879047 43.5652233 -67.5234375 40.703125 C-67.55744156 39.38093964 -67.55744156 39.38093964 -67.59213257 38.03204346 C-67.57738093 33.71549489 -67.36309507 30.8823893 -64.59228516 27.45605469 C-62 25 -62 25 -60 24 C-58.23881017 24.08629791 -56.47755108 24.18078037 -54.71986389 24.32139587 C-34.98414686 26.22654908 -34.98414686 26.22654908 -17.19340515 19.30871582 C-11.30705033 14.22688093 -6.31433385 8.28840843 -1.63769531 2.09545898 C-0.82703613 1.05820679 -0.82703613 1.05820679 0 0 Z " fill="#FFFFFF" transform="translate(143,356)"/>
<path d="M0 0 C0.79019531 -0.04253906 1.58039063 -0.08507813 2.39453125 -0.12890625 C10.90701672 1.97838036 17.56617578 10.63862531 23.5 16.625 C24.83901367 17.95241211 24.83901367 17.95241211 26.20507812 19.30664062 C27.06166016 20.16580078 27.91824219 21.02496094 28.80078125 21.91015625 C29.57204346 22.68367432 30.34330566 23.45719238 31.13793945 24.25415039 C34.48815735 28.02738568 36.62619821 31.266113 36.75 36.375 C36.81380859 37.56029297 36.81380859 37.56029297 36.87890625 38.76953125 C34.75271884 47.35836741 25.97368075 54.07850525 19.9375 60.0625 C19.02742188 60.9803125 18.11734375 61.898125 17.1796875 62.84375 C16.31085938 63.71 15.44203125 64.57625 14.546875 65.46875 C13.75764648 66.25572266 12.96841797 67.04269531 12.15527344 67.85351562 C10.1875 69.5625 10.1875 69.5625 8.1875 69.5625 C8.1875 82.4325 8.1875 95.3025 8.1875 108.5625 C2.9075 108.5625 -2.3725 108.5625 -7.8125 108.5625 C-7.8125 95.6925 -7.8125 82.8225 -7.8125 69.5625 C-9.1325 68.9025 -10.4525 68.2425 -11.8125 67.5625 C-13.48515322 66.07528893 -15.10662848 64.52973923 -16.69140625 62.94921875 C-17.61244141 62.03076172 -18.53347656 61.11230469 -19.48242188 60.16601562 C-19.95736084 59.68688721 -20.4322998 59.20775879 -20.92163086 58.71411133 C-22.36683641 57.25822393 -23.8223625 55.81327977 -25.27929688 54.36914062 C-26.19904297 53.44681641 -27.11878906 52.52449219 -28.06640625 51.57421875 C-28.90502197 50.73334717 -29.7436377 49.89247559 -30.60766602 49.02612305 C-34.03411948 45.19749478 -36.24880421 41.95767951 -36.375 36.75 C-36.41753906 35.95980469 -36.46007812 35.16960938 -36.50390625 34.35546875 C-34.39661964 25.84298328 -25.73637469 19.18382422 -19.75 13.25 C-18.42258789 11.91098633 -18.42258789 11.91098633 -17.06835938 10.54492188 C-16.20919922 9.68833984 -15.35003906 8.83175781 -14.46484375 7.94921875 C-13.30456665 6.79232544 -13.30456665 6.79232544 -12.12084961 5.61206055 C-8.34761432 2.26184265 -5.108887 0.12380179 0 0 Z M-2.50830078 21.03125 C-3.16813965 21.7015625 -3.82797852 22.371875 -4.5078125 23.0625 C-5.58095703 24.1453125 -5.58095703 24.1453125 -6.67578125 25.25 C-7.79533203 26.3946875 -7.79533203 26.3946875 -8.9375 27.5625 C-9.69160156 28.325625 -10.44570312 29.08875 -11.22265625 29.875 C-13.09046966 31.76645662 -14.95347267 33.66241362 -16.8125 35.5625 C-15.4540798 38.60582765 -13.92786976 40.68559151 -11.5546875 43.015625 C-10.92949219 43.634375 -10.30429688 44.253125 -9.66015625 44.890625 C-9.00917969 45.52484375 -8.35820312 46.1590625 -7.6875 46.8125 C-7.02878906 47.4621875 -6.37007812 48.111875 -5.69140625 48.78125 C-4.06953357 50.37961727 -2.4431719 51.97311897 -0.8125 53.5625 C2.23082765 52.2040798 4.31059151 50.67786976 6.640625 48.3046875 C7.259375 47.67949219 7.878125 47.05429687 8.515625 46.41015625 C9.14984375 45.75917969 9.7840625 45.10820313 10.4375 44.4375 C11.0871875 43.77878906 11.736875 43.12007812 12.40625 42.44140625 C14.00461727 40.81953357 15.59811897 39.1931719 17.1875 37.5625 C15.8364735 34.55234706 14.32414313 32.44282534 12 30.109375 C11.07574219 29.18125 11.07574219 29.18125 10.1328125 28.234375 C9.16988281 27.28304688 9.16988281 27.28304688 8.1875 26.3125 C7.54554688 25.6628125 6.90359375 25.013125 6.2421875 24.34375 C5.31792969 23.42335938 5.31792969 23.42335938 4.375 22.484375 C3.81167969 21.92331055 3.24835938 21.36224609 2.66796875 20.78417969 C0.44137044 18.94679546 -0.35669894 19.16772615 -2.50830078 21.03125 Z " fill="#FFFFFF" transform="translate(255.8125,-0.5625)"/>
</svg>
