<?xml version="1.0" encoding="UTF-8"?>
<svg version="1.1" xmlns="http://www.w3.org/2000/svg" width="512" height="512">
<path d="M0 0 C1.72489743 0.44931249 3.45016944 0.897189 5.17578125 1.34375 C7.68273243 1.99564194 10.18701941 2.65317357 12.68554688 3.33666992 C13.42482422 3.53881104 14.16410156 3.74095215 14.92578125 3.94921875 C15.56942627 4.12799561 16.21307129 4.30677246 16.8762207 4.4909668 C35.44451252 8.94146553 55.65600196 6.1547579 74 2 C74.80979832 3.59247781 75.61649212 5.18653457 76.421875 6.78125 C76.87143555 7.66876953 77.32099609 8.55628906 77.78417969 9.47070312 C84.25566409 22.93346986 83.22759193 41.24571597 79.03515625 55.21484375 C75.92103963 63.36187611 71.1731761 69.63916502 65.17578125 75.90625 C53.45541394 88.33774072 50.2778048 103.1170477 50.625 119.6484375 C51.20447755 131.31663184 55.64886516 140.96032143 63 150 C63.42152344 150.55945313 63.84304688 151.11890625 64.27734375 151.6953125 C66.55892617 154.62987305 69.12799666 157.03239487 71.9375 159.4375 C80.69629143 167.0131151 86.14872268 175.59489071 89 187 C89 191.29 89 195.58 89 200 C43.46 200 -2.08 200 -49 200 C-41.13793103 146.27586207 -41.13793103 146.27586207 -40 144 C-36.69958535 143.64086397 -33.41887757 143.55541597 -30.1015625 143.44140625 C-27.09842517 143.20305225 -27.09842517 143.20305225 -25.10546875 141.9453125 C-23.36095987 138.87547003 -23.60139866 135.74324684 -23.6875 132.3125 C-23.6987793 131.59078613 -23.71005859 130.86907227 -23.72167969 130.12548828 C-23.91955195 122.44492023 -24.71783286 115.94243803 -30 110 C-31.70029367 109.3534482 -33.40967707 108.73055348 -35.125 108.125 C-37.80078125 106.8984375 -37.80078125 106.8984375 -40 105 C-41.0768776 101.15990031 -41.33941594 97.40933022 -41.60546875 93.453125 C-42.83831908 76.03291173 -52.34405376 54.68888263 -65.28125 42.92578125 C-69.63872902 38.8981818 -71.44432971 35.99161579 -71.74926758 29.91821289 C-71.75195307 21.73909411 -70.3567998 14.50476454 -67 7 C-66.73058594 6.2059375 -66.46117187 5.411875 -66.18359375 4.59375 C-65.08267144 2.05103404 -64.16266591 0.74676862 -62 -1 C-43.40055661 -8.31578107 -18.77579064 -5.09497817 0 0 Z M4 33.5625 C1.08611118 38.80551763 1.04389718 44.17717706 2 50 C3.95564674 55.44530996 7.59298733 59.34964702 12.62890625 62.1484375 C18.10252183 64.11425002 23.89747817 64.11425002 29.37109375 62.1484375 C34.40701267 59.34964702 38.04435326 55.44530996 40 50 C40.95610282 44.17717706 40.91388882 38.80551763 38 33.5625 C34.29470996 28.6186729 30.26732629 25.53649234 24.09765625 24.5234375 C15.25020283 24.09947378 9.34163823 26.43535595 4 33.5625 Z M-32.375 30.625 C-34.48706506 33.71186432 -34.61195145 35.3282913 -34 39 C-32.5 41.5 -32.5 41.5 -30 43 C-26.3282913 43.61195145 -24.71186432 43.48706506 -21.625 41.375 C-19.51293494 38.28813568 -19.38804855 36.6717087 -20 33 C-21.5 30.5 -21.5 30.5 -24 29 C-27.6717087 28.38804855 -29.28813568 28.51293494 -32.375 30.625 Z M7.625 94.625 C5.51293494 97.71186432 5.38804855 99.3282913 6 103 C7.5 105.5 7.5 105.5 10 107 C13.6717087 107.61195145 15.28813568 107.48706506 18.375 105.375 C20.48706506 102.28813568 20.61195145 100.6717087 20 97 C18.5 94.5 18.5 94.5 16 93 C12.3282913 92.38804855 10.71186432 92.51293494 7.625 94.625 Z M-8.375 166.625 C-10.48706506 169.71186432 -10.61195145 171.3282913 -10 175 C-8.5 177.5 -8.5 177.5 -6 179 C-2.3282913 179.61195145 -0.71186432 179.48706506 2.375 177.375 C4.48706506 174.28813568 4.61195145 172.6717087 4 169 C2.5 166.5 2.5 166.5 0 165 C-3.6717087 164.38804855 -5.28813568 164.51293494 -8.375 166.625 Z " fill="#FFFFFF" transform="translate(395,140)"/>
<path d="M0 0 C57.42 0 114.84 0 174 0 C170.5509917 25.29272752 170.5509917 25.29272752 168.65576172 37.68457031 C168.44005971 39.10325081 168.22449861 40.52195274 168.00906372 41.94067383 C167.43647022 45.70823407 166.86171735 49.47546145 166.28630972 53.24259281 C165.80346675 56.40474938 165.32160208 59.56705476 164.83967984 62.72935176 C163.70452617 70.17757123 162.5674384 77.62549367 161.42919922 85.07324219 C160.25640947 92.74736537 159.08749257 100.42207193 157.92030513 108.097049 C156.91288767 114.72034393 155.90287286 121.34323931 154.8908025 127.96582484 C154.28841273 131.90790047 153.6870713 135.85012897 153.08834457 139.79276276 C152.52824104 143.48044731 151.96491779 147.16762542 151.3990593 150.85443115 C151.09284838 152.85497984 150.79000418 154.85604293 150.48724365 156.8571167 C150.30509308 158.03971069 150.1229425 159.22230469 149.93527222 160.44073486 C149.7778549 161.47222279 149.62043758 162.50371071 149.45825005 163.56645584 C149 166 149 166 148 168 C107.74 168 67.48 168 26 168 C24.80226257 162.61018158 23.68270409 157.43778501 22.84835815 152.01553345 C22.74864405 151.37292615 22.64892994 150.73031886 22.5461942 150.06823862 C22.21790026 147.94777486 21.89384417 145.8266871 21.56982422 143.70556641 C21.33332981 142.17214148 21.09657754 140.6387563 20.85958862 139.10540771 C20.22058848 134.96579898 19.58533993 130.82562275 18.95091391 126.68531084 C18.28550621 122.34626121 17.61703062 118.00768409 16.94900513 113.66903687 C15.82896874 106.39149678 14.71135619 99.11358763 13.59521484 91.83544922 C12.30435968 83.41822302 11.00974823 75.00158108 9.7131232 66.58524191 C8.46481531 58.48200912 7.21905293 50.37838702 5.97449112 42.27457809 C5.44500362 38.82714777 4.91463759 35.37985429 4.38357162 31.93266678 C3.75933042 27.87986228 3.1373194 23.82672169 2.51704788 19.7733078 C2.28884841 18.28443676 2.05987909 16.79568348 1.83009338 15.30705643 C1.51720443 13.27921277 1.20735555 11.25090073 0.89767456 9.2225647 C0.72328794 8.0866218 0.54890133 6.9506789 0.36923027 5.78031349 C0 3 0 3 0 0 Z M59 54 C51.85792568 63.21611933 51.14817 72.73814361 52 84 C53.81157556 93.07003603 59.97048096 100.10235094 67.15234375 105.66796875 C76.45303921 111.75537211 87.14847033 112.56820097 97.9140625 110.41796875 C106.94563868 107.27842084 114.24628721 100.14689033 119.0625 92.01953125 C123.15511549 83.20335537 123.78239262 71.88770479 120.5625 62.625 C116.01668758 53.09967575 107.96689489 45.78675795 98.24609375 41.8984375 C82.74026792 37.60681302 69.68009079 42.48523071 59 54 Z " fill="#FFFFFF" transform="translate(169,316)"/>
<path d="M0 0 C45.87 0 91.74 0 139 0 C139 29.04 139 58.08 139 88 C88.84 88 38.68 88 -13 88 C-11.8748456 73.37299283 -11.8748456 73.37299283 -10.89257812 66.96240234 C-10.78674911 66.2630658 -10.6809201 65.56372925 -10.57188416 64.84320068 C-10.22968294 62.59003609 -9.88068113 60.33799112 -9.53125 58.0859375 C-9.28810637 56.49749959 -9.04531512 54.9090077 -8.80285645 53.32046509 C-8.29816762 50.0206284 -7.79026261 46.72130934 -7.27978516 43.42236328 C-6.62565772 39.19427385 -5.97823696 34.96519074 -5.33298492 30.73573875 C-4.83408087 27.46867891 -4.33246631 24.20204003 -3.8299408 20.93553543 C-3.59006501 19.37510903 -3.35085287 17.81458045 -3.11231995 16.25394821 C-2.77999757 14.08343165 -2.44421581 11.91347895 -2.10742188 9.74365234 C-1.91724487 8.51045258 -1.72706787 7.27725281 -1.53112793 6.00668335 C-1 3 -1 3 0 0 Z M38 33.5625 C35.08611118 38.80551763 35.04389718 44.17717706 36 50 C37.95564674 55.44530996 41.59298733 59.34964702 46.62890625 62.1484375 C52.10252183 64.11425002 57.89747817 64.11425002 63.37109375 62.1484375 C68.40701267 59.34964702 72.04435326 55.44530996 74 50 C74.95610282 44.17717706 74.91388882 38.80551763 72 33.5625 C68.29470996 28.6186729 64.26732629 25.53649234 58.09765625 24.5234375 C49.25020283 24.09947378 43.34163823 26.43535595 38 33.5625 Z " fill="#FFFFFF" transform="translate(345,348)"/>
<path d="M0 0 C7.24442151 0.65644601 14.18618993 2.00498883 21.28100586 3.58862305 C22.47879669 3.85223129 23.67658752 4.11583954 24.91067505 4.38743591 C28.84679145 5.25605217 32.78107995 6.13252786 36.71484375 7.01171875 C37.386007 7.1615308 38.05717024 7.31134285 38.74867177 7.46569467 C45.08271966 8.87957795 51.41599765 10.29685047 57.7471838 11.72349834 C65.82574719 13.54372893 73.90786679 15.34592031 81.99586004 17.12379807 C87.69703049 18.37852932 93.39348506 19.65332587 99.08680254 20.94321662 C102.48331095 21.71218019 105.8812652 22.47215067 109.28452873 23.21069908 C113.07135136 24.03302987 116.84805242 24.8967208 120.62475586 25.7644043 C121.75356674 26.00308228 122.88237762 26.24176025 124.0453949 26.4876709 C126.83655207 27.14794685 129.38960657 27.81323014 132 29 C133.61643982 31.64152527 133.61643982 31.64152527 134 35 C134.25377729 36.38376459 134.51141654 37.76682406 134.77200317 39.14932251 C135.02410618 40.75577886 135.27049014 42.36313952 135.51220703 43.97119141 C135.71747009 45.29423027 135.71747009 45.29423027 135.92687988 46.64399719 C136.37568129 49.54575112 136.81690798 52.44859905 137.2578125 55.3515625 C137.56846443 57.3737044 137.87949496 59.39578817 138.19088745 61.41781616 C138.84131634 65.6488171 139.48817603 69.88034309 140.13232422 74.11230469 C140.9583588 79.53827607 141.79169934 84.96309353 142.62750435 90.38756752 C143.2698269 94.55986804 143.90908408 98.73263347 144.54732895 102.90555954 C144.85357475 104.9063724 145.16059059 106.90706755 145.4683876 108.90764236 C145.89745046 111.70051332 146.32257742 114.49395491 146.74658203 117.28759766 C146.93823441 118.52826241 146.93823441 118.52826241 147.13375854 119.79399109 C147.65487067 123.2520336 148 126.4938479 148 130 C132.04105499 126.9361206 116.20004245 123.39333569 100.36005807 119.77141213 C97.57086047 119.13396382 94.78128438 118.49818029 91.99171513 117.86236066 C85.42254819 116.36502402 78.85401242 114.86494265 72.28588867 113.36303711 C65.51650596 111.8151611 58.74605849 110.27200788 51.97509319 108.73107082 C46.13207891 107.40114928 40.28971262 106.06840895 34.4478671 104.73336285 C30.97037972 103.93867434 27.49265677 103.14505701 24.01430702 102.35415077 C20.16003866 101.47761326 16.30713048 100.59519523 12.4543457 99.7121582 C11.30181808 99.45086624 10.14929047 99.18957428 8.96183777 98.92036438 C7.92076874 98.68075989 6.87969971 98.4411554 5.80708313 98.19429016 C4.44261787 97.8826818 4.44261787 97.8826818 3.05058765 97.56477833 C1 97 1 97 0 96 C-0.0952822 93.01701786 -0.12552175 90.05723655 -0.11352539 87.07397461 C-0.11367142 86.13748581 -0.11381744 85.20099701 -0.1139679 84.23612976 C-0.11326837 81.12484461 -0.10547415 78.01361851 -0.09765625 74.90234375 C-0.09579221 72.75142957 -0.09436824 70.60051497 -0.09336853 68.44960022 C-0.08954225 62.77618242 -0.07971102 57.10279005 -0.06866455 51.42938232 C-0.0584528 45.64498234 -0.05387142 39.86057827 -0.04882812 34.07617188 C-0.03808885 22.71743672 -0.02101111 11.35872047 0 0 Z M63.0625 48.875 C56.78125806 56.87469493 55.82935717 63.89194939 57 74 C59.60101346 82.886796 65.46352132 88.18738322 73.125 92.9375 C80.43098661 95.59574227 89.41555836 95.17812649 96.4375 92 C102.5104308 88.46411595 108.11161031 82.89332575 110.55859375 76.16796875 C112.26420331 67.79085986 111.9613606 59.64867866 107.6171875 52.1875 C103.54284369 46.67631031 97.89000751 41.40283036 91 40 C79.64833999 38.76642522 71.00627857 40.36853711 63.0625 48.875 Z " fill="#FFFFFF" transform="translate(28,277)"/>
<path d="M0 0 C7.68903738 0.66519921 15.03362771 2.22303988 22.55029297 3.94335938 C23.89639485 4.24771795 25.24259418 4.55164579 26.58888245 4.85517883 C30.21962382 5.67507408 33.84895604 6.50105231 37.4780364 7.32826424 C41.28351327 8.19466805 45.09021024 9.05567882 48.89675903 9.9173584 C55.28088189 11.36332445 61.66416062 12.8129667 68.046875 14.26513672 C76.24092407 16.12939588 84.43632345 17.98764642 92.63216972 19.84398651 C99.68522563 21.44152622 106.7376842 23.04169683 113.79003382 24.64235115 C116.05532033 25.1563936 118.32068382 25.67009575 120.58605576 26.1837616 C124.14048969 26.98990442 127.69454807 27.79768329 131.24831963 28.60674095 C133.17615895 29.0452859 135.10433346 29.4823565 137.03251648 29.91938782 C138.17637314 30.1801561 139.3202298 30.44092438 140.49874878 30.70959473 C141.49457914 30.93597878 142.49040951 31.16236282 143.51641655 31.39560699 C146 32 146 32 149 33 C149.67333984 34.72802734 149.67333984 34.72802734 150.0859375 36.9609375 C150.2415918 37.77530273 150.39724609 38.58966797 150.55761719 39.42871094 C150.70360352 40.27723633 150.84958984 41.12576172 151 42 C151.1434082 42.79438477 151.28681641 43.58876953 151.43457031 44.40722656 C151.85520303 46.80985702 152.24418469 49.21576026 152.625 51.625 C152.82609375 52.83542969 152.82609375 52.83542969 153.03125 54.0703125 C153.78040554 58.77929017 154.14059637 63.23250477 154 68 C148.20500045 71.82468387 142.50282263 71.43704455 135.72753906 71.41992188 C134.4942688 71.42839142 133.26099854 71.43686096 131.99035645 71.44558716 C128.61806831 71.46494284 125.24633428 71.47073655 121.87402821 71.46883965 C119.05131498 71.46871963 116.22865302 71.47729687 113.40595412 71.48561716 C106.74032761 71.50483292 100.07482631 71.50774254 93.40917969 71.50097656 C86.55282793 71.49434439 79.69701533 71.5171705 72.84077287 71.55429029 C66.93817765 71.58507721 61.03575501 71.59633743 55.1330812 71.59245348 C51.61488455 71.59039436 48.09710713 71.59573328 44.57898712 71.62034607 C40.64912678 71.64693193 36.71996117 71.63281685 32.79003906 71.61523438 C31.06276581 71.63512924 31.06276581 71.63512924 29.30059814 71.65542603 C20.92130663 71.56862914 14.12137486 69.81904225 7.85269547 64.01021576 C0.54784544 56.31763768 -0.4402994 49.43109074 -0.29296875 39.16015625 C-0.28660149 37.47701576 -0.28660149 37.47701576 -0.28010559 35.75987244 C-0.26338097 32.19383233 -0.22573922 28.62836785 -0.1875 25.0625 C-0.17244517 22.63737798 -0.15875817 20.21224706 -0.14648438 17.78710938 C-0.11349778 11.8578782 -0.06336008 5.92898024 0 0 Z " fill="#FFFFFF" transform="translate(28,381)"/>
<path d="M0 0 C50.82 0 101.64 0 154 0 C154 24.53974895 154 24.53974895 147.1328125 32.0390625 C139.21574896 39.52484632 132.17853872 40.44670386 121.61401367 40.41992188 C120.38059738 40.42839142 119.14718109 40.43686096 117.87638855 40.44558716 C114.50829129 40.46492209 111.14074922 40.47073813 107.77263427 40.46883965 C104.95235622 40.46871952 102.13212935 40.47730098 99.31186563 40.48561716 C92.65245542 40.50482142 85.99317054 40.50774635 79.33374023 40.50097656 C72.48475202 40.49434158 65.63630315 40.5171845 58.78742427 40.55429029 C52.88905512 40.58507607 46.99085865 40.59633766 41.09241086 40.59245348 C37.57758239 40.59039467 34.06317358 40.5957289 30.54842186 40.62034607 C26.62345994 40.64693029 22.69919368 40.63281771 18.77416992 40.61523438 C17.04925323 40.63512924 17.04925323 40.63512924 15.28948975 40.65542603 C8.13398191 40.58120658 1.75516922 39.58499664 -4 35 C-6.84800125 23.60799501 -1.86980442 11.59278743 0 0 Z " fill="#FFFFFF" transform="translate(330,444)"/>
<path d="M0 0 C15.8299306 2.26911959 31.3421659 2.59054681 47.31396484 2.41918945 C49.80614409 2.40408829 52.29833238 2.39040966 54.79052734 2.37817383 C60.79854262 2.34566127 66.80620894 2.29590848 72.81396484 2.23168945 C74.74848042 6.66491333 76.38834044 10.81488312 77.50146484 15.54418945 C77.87851562 17.08526367 77.87851562 17.08526367 78.26318359 18.6574707 C78.81396484 22.23168945 78.81396484 22.23168945 78.81396484 32.23168945 C18.09396484 32.23168945 -42.62603516 32.23168945 -105.18603516 32.23168945 C-105.18603516 25.32176108 -105.0779042 20.30372687 -103.31103516 13.91918945 C-103.13701172 13.24307617 -102.96298828 12.56696289 -102.78369141 11.87036133 C-102.28607311 9.98125483 -101.73758737 8.10575922 -101.18603516 6.23168945 C-100.97720703 5.28938477 -100.76837891 4.34708008 -100.55322266 3.3762207 C-99.18603516 1.23168945 -99.18603516 1.23168945 -95.81494141 0.02075195 C-94.27770488 -0.27392818 -92.73356936 -0.53363969 -91.18603516 -0.76831055 C-90.30028809 -0.90914062 -89.41454102 -1.0499707 -88.50195312 -1.19506836 C-58.86678115 -5.51593305 -29.53639646 -4.38806511 0 0 Z " fill="#FFFFFF" transform="translate(269.18603515625,211.768310546875)"/>
<path d="M0 0 C1.06416138 -0.00043808 2.12832275 -0.00087616 3.22473145 -0.00132751 C6.72561287 0.00075463 10.22600935 0.0240592 13.72680664 0.04760742 C16.16060627 0.0532054 18.59440928 0.05747455 21.0282135 0.06047058 C27.42169594 0.07190335 33.81497265 0.10135735 40.20837402 0.13458252 C46.73727638 0.16531703 53.26621211 0.17898316 59.79516602 0.1940918 C72.5966885 0.2262283 85.39805856 0.27740593 98.19946289 0.34057617 C98.19946289 3.31057617 98.19946289 6.28057617 98.19946289 9.34057617 C97.5355957 9.60870117 96.87172852 9.87682617 96.18774414 10.15307617 C89.84295526 12.96886569 85.77044069 15.7277821 83.19946289 22.34057617 C82.15984815 27.04902488 81.98489138 31.72308791 81.94946289 36.52807617 C81.92883789 37.23899414 81.90821289 37.94991211 81.88696289 38.68237305 C81.86555084 41.52749952 81.87947187 43.77347464 83.29711914 46.28588867 C86.12572949 47.85411207 88.67775802 47.86920464 91.88696289 48.02807617 C93.65620117 48.12668945 93.65620117 48.12668945 95.46118164 48.22729492 C96.36481445 48.26467773 97.26844727 48.30206055 98.19946289 48.34057617 C98.54117295 49.71351839 98.87237406 51.08907735 99.19946289 52.46557617 C99.38508789 53.2312793 99.57071289 53.99698242 99.76196289 54.78588867 C100.25669772 57.67478666 100.2276334 60.41436498 100.19946289 63.34057617 C92.06205187 62.07028214 84.04586927 60.49821886 76.02099609 58.65087891 C74.86992874 58.38884674 73.71886139 58.12681458 72.53291321 57.85684204 C68.77120474 56.99949347 65.01069203 56.13702936 61.25024414 55.27416992 C59.2886341 54.82550162 57.32691573 54.37730939 55.36518258 53.92917973 C49.22076375 52.52557518 43.07715109 51.11848378 36.93408203 49.70898438 C30.59668907 48.25494772 24.25811011 46.80617151 17.91891223 45.36002582 C12.46245699 44.11510963 7.00665631 42.86735619 1.55139607 41.61721379 C-1.70154631 40.87176644 -4.95477464 40.12761509 -8.2084713 39.38546562 C-11.82160388 38.56079714 -15.43363829 37.73148343 -19.04541016 36.90087891 C-20.66681915 36.53228004 -20.66681915 36.53228004 -22.32098389 36.15623474 C-23.29788681 35.93056824 -24.27478973 35.70490173 -25.28129578 35.47239685 C-26.13496074 35.276809 -26.9886257 35.08122114 -27.86815929 34.87970638 C-29.80053711 34.34057617 -29.80053711 34.34057617 -30.80053711 33.34057617 C-31.7210447 24.62205427 -31.03009182 17.52805595 -25.80053711 10.34057617 C-18.23654758 1.9695501 -10.9528665 -0.11884122 0 0 Z " fill="#FFFFFF" transform="translate(58.800537109375,235.659423828125)"/>
<path d="M0 0 C0.82235303 -0.00438225 1.64470606 -0.00876451 2.49197888 -0.01327956 C5.26331126 -0.02669506 8.03461181 -0.03285258 10.80596924 -0.03897095 C12.78665309 -0.04686974 14.76733549 -0.05513855 16.74801636 -0.06375122 C23.26634339 -0.08999682 29.78467693 -0.10528125 36.30303955 -0.11953735 C38.54471084 -0.12489596 40.78638208 -0.13027347 43.02805328 -0.13566971 C52.35107745 -0.15730202 61.67409987 -0.17603967 70.99714279 -0.1872921 C84.36976622 -0.20353685 97.74209933 -0.23672356 111.11461329 -0.29369295 C120.51084805 -0.33236134 129.90700506 -0.35192112 139.30331731 -0.35721266 C144.91845612 -0.36087032 150.53328546 -0.37293577 156.14833832 -0.4053154 C161.43104027 -0.43534132 166.71324462 -0.4417273 171.99601364 -0.42993164 C173.93503293 -0.42971045 175.87407494 -0.4380531 177.81301498 -0.45558548 C180.46074277 -0.47822378 183.10665806 -0.47000758 185.75439453 -0.45410156 C186.5215248 -0.46798365 187.28865507 -0.48186574 188.07903171 -0.49616849 C193.87272733 -0.41042641 196.22392727 1.17272093 200.13116455 5.15390015 C202.96743754 10.82644612 201.13116455 17.81180095 201.13116455 24.15390015 C129.85116455 24.15390015 58.57116455 24.15390015 -14.86883545 24.15390015 C-14.86883545 7.15390015 -14.86883545 7.15390015 -9.86883545 1.15390015 C-6.74747268 -0.40678124 -3.42698113 0.00219805 0 0 Z " fill="#FFFFFF" transform="translate(162.86883544921875,251.84609985351563)"/>
<path d="M0 0 C13.2 0 26.4 0 40 0 C40.2475 3.526875 40.495 7.05375 40.75 10.6875 C42.16824961 27.88483083 46.53639659 42.67854847 59.484375 54.921875 C63.11418132 57.92041065 67.01304045 60.41138391 70.98046875 62.9375 C75.72455858 66.17796498 79.85410911 70.03755561 84 74 C83.505 75.485 83.505 75.485 83 77 C62.45966282 82.21265355 41.4010499 81.28396274 21 76 C20.14696289 75.78085938 19.29392578 75.56171875 18.41503906 75.3359375 C15.05459499 74.4661461 11.69628107 73.59287513 8.35180664 72.66333008 C7.62082764 72.46118896 6.88984863 72.25904785 6.13671875 72.05078125 C5.50467529 71.87200439 4.87263184 71.69322754 4.22143555 71.5090332 C-1.55164282 70.18615504 -7.21996135 69.85929922 -13.12109375 69.90234375 C-13.86585464 69.9037587 -14.61061554 69.90517365 -15.37794495 69.90663147 C-17.73117273 69.91218011 -20.0843015 69.92472267 -22.4375 69.9375 C-24.04361841 69.94252165 -25.64973832 69.94708339 -27.25585938 69.95117188 C-31.17061043 69.96213265 -35.08528849 69.97936116 -39 70 C-35.43905497 66.3547277 -31.95440545 63.48270632 -27.6875 60.6875 C-13.91412275 51.32392646 -5.40054798 39.41322146 -2 23 C-1.43808083 18.9445938 -1.09853431 14.89558751 -0.8125 10.8125 C-0.544375 7.244375 -0.27625 3.67625 0 0 Z " fill="#FFFFFF" transform="translate(380,60)"/>
<path d="M0 0 C60.72 0 121.44 0 184 0 C181 22 181 22 180 24 C121.92 24 63.84 24 4 24 C2 16 2 16 0 0 Z " fill="#FFFFFF" transform="translate(164,284)"/>
<path d="M0 0 C1.25645828 -0.00137466 2.51291656 -0.00274933 3.80744934 -0.00416565 C5.20751977 -0.00062627 6.60758996 0.00300854 8.00765991 0.00672913 C9.47591652 0.00701107 10.94417328 0.00685312 12.41242981 0.00628662 C16.40599794 0.00599894 20.39953622 0.01189094 24.3930974 0.01886058 C28.56380087 0.02509899 32.73450498 0.0256983 36.9052124 0.02688599 C44.80645472 0.02999786 52.70768326 0.03820932 60.6089195 0.04823548 C69.60274692 0.05940107 78.59657499 0.06490819 87.59040761 0.06993091 C106.09457115 0.08039204 124.59872185 0.09798871 143.10287476 0.12025452 C145.39563287 7.98113947 146.17759461 16.00928817 147.10287476 24.12025452 C127.25784384 24.23706957 107.41288273 24.32523373 87.56757927 24.37931538 C78.35299052 24.40509419 69.13861543 24.44023849 59.92416382 24.49745178 C51.89259038 24.5472967 43.86117168 24.57954788 35.82944787 24.59069699 C31.57684748 24.59721395 27.32468976 24.61252356 23.07223129 24.6489048 C19.06830347 24.68288175 15.06499999 24.69330424 11.0609417 24.68579292 C9.59277514 24.68716673 8.12458739 24.69708978 6.65654564 24.71628189 C-5.82009453 24.87137043 -5.82009453 24.87137043 -9.75500488 21.70977783 C-13.13599959 17.62262906 -13.2865724 14.86600024 -13.25650024 9.67103577 C-12.6775249 5.56156947 -10.89797595 3.90675874 -7.89712524 1.12025452 C-5.17672878 -0.23994372 -3.04665863 -0.00256022 0 0 Z " fill="#FFFFFF" transform="translate(40.897125244140625,459.87974548339844)"/>
<path d="M0 0 C1.11341766 -0.00137466 2.22683533 -0.00274933 3.37399292 -0.00416565 C4.60109985 -0.00057037 5.82820679 0.0030249 7.09249878 0.00672913 C9.02414383 0.00651009 9.02414383 0.00651009 10.99481201 0.00628662 C14.53178473 0.00599902 18.06872371 0.01188969 21.60568857 0.01886058 C25.29992916 0.02510036 28.99417048 0.02569841 32.68841553 0.02688599 C39.68655154 0.02999745 46.68467198 0.03820837 53.68280113 0.04823548 C61.64883648 0.05940233 69.61487256 0.06490851 77.58091378 0.06993091 C93.97003848 0.08039112 110.3591475 0.09798701 126.7482605 0.12025452 C126.54144653 0.70516663 126.33463257 1.29007874 126.12155151 1.89271545 C125.18273882 4.55123475 124.24672252 7.21073034 123.3107605 9.87025452 C122.98527222 10.79064514 122.65978394 11.71103577 122.32443237 12.65931702 C122.01183472 13.54877014 121.69923706 14.43822327 121.37716675 15.35462952 C121.08914185 16.17157288 120.80111694 16.98851624 120.50436401 17.83021545 C119.81650189 19.91356924 119.24779132 21.98492105 118.7482605 24.12025452 C102.68435393 24.23711993 86.62058552 24.32525811 70.55635643 24.37931538 C63.09723057 24.40508368 55.63836903 24.44020743 48.17941284 24.49745178 C41.67723271 24.54732944 35.17524403 24.57955554 28.67287791 24.59069699 C25.2306559 24.59720856 21.78898154 24.61248246 18.34693527 24.6489048 C14.50192852 24.68926009 10.65745474 24.69020113 6.81222534 24.68788147 C5.10534546 24.71484604 5.10534546 24.71484604 3.36398315 24.74235535 C-5.24786951 24.68606792 -5.24786951 24.68606792 -8.9432373 21.70977783 C-12.54141182 17.6735864 -12.64164593 14.94533979 -12.6111145 9.67103577 C-12.03213916 5.56156947 -10.25259021 3.90675874 -7.2517395 1.12025452 C-4.68549994 -0.16286527 -2.8741922 -0.00272694 0 0 Z " fill="#FFFFFF" transform="translate(40.251739501953125,203.87974548339844)"/>
<path d="M0 0 C7.6761712 0.67847151 15.05385367 2.18007446 22.57421875 3.8359375 C23.85682083 4.11595612 25.13942291 4.39597473 26.46089172 4.68447876 C29.16027723 5.27470176 31.85882579 5.86858766 34.55688477 6.46484375 C38.00124484 7.22548686 41.4480259 7.97446845 44.89558697 8.72044945 C48.20674843 9.43912393 51.51530901 10.16946625 54.82421875 10.8984375 C56.67124641 11.29704483 56.67124641 11.29704483 58.55558777 11.70370483 C59.70730972 11.96052032 60.85903168 12.21733582 62.0456543 12.48193359 C63.05331345 12.70319916 64.0609726 12.92446472 65.09916687 13.1524353 C69.36987162 14.40024875 72.94048229 16.11050253 76.35058594 18.97338867 C78.91073602 23.67116555 78.49234823 28.1640853 78.390625 33.42578125 C78.38496521 34.52850876 78.37930542 35.63123627 78.37347412 36.76737976 C78.3511175 40.28286492 78.30092021 43.79732387 78.25 47.3125 C78.22993418 49.69855297 78.21168355 52.08462194 78.1953125 54.47070312 C78.1546599 60.31451369 78.07636298 66.15611078 78 72 C70.08 72 62.16 72 54 72 C53.95101562 69.72480469 53.90203125 67.44960937 53.8515625 65.10546875 C53.79754761 62.90121908 53.74024223 60.69707782 53.68261719 58.49291992 C53.64434202 56.96142661 53.60948651 55.42984385 53.578125 53.89819336 C53.53244193 51.6961267 53.47445463 49.49467504 53.4140625 47.29296875 C53.40251129 46.60849167 53.39096008 45.92401459 53.37905884 45.21879578 C53.26726256 41.61539163 53.05605447 40.0840817 51 37 C48.6549478 36.11068306 48.6549478 36.11068306 45.84765625 35.57373047 C44.77314209 35.33693573 43.69862793 35.10014099 42.59155273 34.85617065 C41.42696533 34.61230621 40.26237793 34.36844177 39.0625 34.1171875 C37.27598022 33.72758347 37.27598022 33.72758347 35.45336914 33.33010864 C31.63795865 32.50025999 27.81922373 31.6871007 24 30.875 C20.18154827 30.0525126 16.3638519 29.22664744 12.54663086 28.39846802 C10.1681079 27.88358127 7.78872669 27.37264104 5.40844727 26.86593628 C4.33393311 26.63544586 3.25941895 26.40495544 2.15234375 26.16748047 C1.20351318 25.96557098 0.25468262 25.7636615 -0.72290039 25.55563354 C-3 25 -3 25 -5 24 C-4.39496146 18.3444819 -3.37814297 12.99786009 -1.9375 7.5 C-1.75123047 6.77296875 -1.56496094 6.0459375 -1.37304688 5.296875 C-0.91973545 3.53012276 -0.4604998 1.76489225 0 0 Z " fill="#FFFFFF" transform="translate(190,77)"/>
<path d="M0 0 C7.22538503 4.30603754 11.61183794 10.13263188 14.4375 18 C15.58377924 27.37083278 15.35041227 36.25894094 9.4375 44 C4.17173342 49.79454649 -1.46288906 53.49851854 -9.39453125 54.46875 C-18.96468152 54.54388366 -26.27935606 53.80103194 -33.6171875 47.1328125 C-40.09535088 40.22456359 -42.12992353 33.50211038 -42.04296875 24.06860352 C-41.74395838 15.54582427 -38.83865527 9.83070397 -32.6875 4.0625 C-23.90268227 -3.41745987 -10.46364874 -4.75036814 0 0 Z " fill="#FFFFFF" transform="translate(269.5625,366)"/>
<path d="M0 0 C11.86132056 2.37226411 11.86132056 2.37226411 17.75 5 C18.42901367 5.30268799 19.10802734 5.60537598 19.80761719 5.91723633 C35.92077364 13.42083862 49.63116404 25.94201017 59 41 C59.55558594 41.85722656 60.11117187 42.71445313 60.68359375 43.59765625 C62 46 62 46 62 49 C55.99246348 49.74587347 50.13249568 50.15914085 44.08203125 50.16796875 C42.85246956 50.17296135 42.85246956 50.17296135 41.59806824 50.17805481 C39.87454787 50.18308162 38.15101792 50.18546446 36.42749023 50.18530273 C33.83625627 50.18748004 31.24545534 50.20565628 28.65429688 50.22460938 C26.96354309 50.2275463 25.27278733 50.22952909 23.58203125 50.23046875 C22.82944534 50.23765427 22.07685944 50.24483978 21.3014679 50.25224304 C13.9346705 50.22205145 7.5223699 49.07462427 0 48 C0 32.16 0 16.32 0 0 Z " fill="#FFFFFF" transform="translate(276,158)"/>
<path d="M0 0 C0 14.19 0 28.38 0 43 C-6.744375 43.1546875 -6.744375 43.1546875 -13.625 43.3125 C-29.52005105 43.7539579 -45.20612399 45.18792335 -61 47 C-57.59455645 32.21097536 -40.9545781 18.64466054 -28.8125 10.8125 C-20.53084549 5.8946529 -9.81960651 0 0 0 Z " fill="#FFFFFF" transform="translate(236,158)"/>
<path d="M0 0 C23.76 0 47.52 0 72 0 C72 7.92 72 15.84 72 24 C48.24 24 24.48 24 0 24 C0 16.08 0 8.16 0 0 Z " fill="#FFFFFF" transform="translate(364,28)"/>
<path d="M0 0 C4.68796317 2.8950501 8.77605467 6.42344712 10.234375 11.89453125 C11.16656452 18.74158704 11.3930195 24.99387098 7.671875 31.01953125 C3.66347868 35.99068326 0.31000422 38.47580101 -6.0078125 39.3359375 C-13.1275177 39.69575056 -18.34453314 39.19135672 -23.98828125 34.640625 C-29.08369757 29.63479842 -30.03494232 26.05750776 -30.390625 19.01953125 C-30.17838344 12.13997715 -28.58962241 7.80486419 -23.765625 2.89453125 C-17.29271618 -2.6344117 -7.84970384 -3.13766411 0 0 Z " fill="#FFFFFF" transform="translate(121.765625,325.10546875)"/>
<path d="M0 0 C7.92 0 15.84 0 24 0 C24 16.17 24 32.34 24 49 C4 47 4 47 0 46 C0 30.82 0 15.64 0 0 Z " fill="#FFFFFF" transform="translate(244,156)"/>
<path d="M0 0 C3.12578143 1.6720747 5.39281175 3.7856235 7 7 C7.51512617 11.09157355 7.94367269 15.23589546 5.953125 18.95703125 C3.55501226 21.85592636 1.60351712 23.79811835 -2.171875 24.2734375 C-9.98876369 24.58137554 -9.98876369 24.58137554 -13.5625 21.625 C-17.3057723 17.59378368 -17.39037018 14.90519941 -17.359375 9.55078125 C-16.78039966 5.44131496 -15.00085071 3.78650423 -12 1 C-8.27533151 -0.86233425 -4.05504687 -0.57130829 0 0 Z " fill="#FFFFFF" transform="translate(405,380)"/>
<path d="M0 0 C3.12578143 1.6720747 5.39281175 3.7856235 7 7 C7.51512617 11.09157355 7.94367269 15.23589546 5.953125 18.95703125 C3.55501226 21.85592636 1.60351712 23.79811835 -2.171875 24.2734375 C-9.98876369 24.58137554 -9.98876369 24.58137554 -13.5625 21.625 C-17.3057723 17.59378368 -17.39037018 14.90519941 -17.359375 9.55078125 C-16.78039966 5.44131496 -15.00085071 3.78650423 -12 1 C-8.27533151 -0.86233425 -4.05504687 -0.57130829 0 0 Z " fill="#FFFFFF" transform="translate(421,172)"/>
</svg>
